<svg xmlns="http://www.w3.org/2000/svg" viewBox="0 0 512 512"><path fill="#fafafa" d="m358.67 230c0-10.205-3.8354-20.418-11.512-28.242l-140.31-142.11c-7.0194-7.7626-17.127-11.651-27.877-11.651-9.386 0-19.414 3.8886-27.195 11.659l-140.27 142.07c-7.6748 7.8812-11.513 18.038-11.513 27.544 0 10.205 3.8386 20.451 11.512 28.275l140.31 142.11c7.7214 7.7691 17.801 11.659 27.877 11.659 10.076 0 20.16-3.8862 27.877-11.659l140.31-142.11c7.6621-7.15 10.791-17.306 10.791-27.544zm-281.66 19.5c-10.629 0-18.531-8.7344-18.531-18.769 0-10.034 8.6239-18.769 18.531-18.769s19.253 7.3125 19.253 18.038-8.5837 19.5-19.253 19.5zm102.68 104c-10.629 0-18.531-8.7344-18.531-18.769s8.6239-18.769 18.531-18.769 18.531 8.7344 18.531 18.769-7.8618 18.769-18.531 18.769zm0-104c-10.629 0-18.531-8.7344-18.531-18.769 0-10.034 8.6239-18.769 18.531-18.769s19.253 7.3125 19.253 18.038-8.5837 19.5-19.253 19.5zm0-104c-10.629 0-18.531-8.7344-18.531-18.769 0-10.034 8.6239-18.769 18.531-18.769s18.531 8.7344 18.531 18.769c0 10.034-7.8618 18.769-18.531 18.769zm102.68 104c-10.629 0-18.531-8.7344-18.531-18.769 0-10.034 8.6239-18.769 18.531-18.769s18.531 8.7344 18.531 18.769c0 10.034-7.8618 18.769-18.531 18.769zm191.81-45.5h-95.223c3.5442 8.3444 5.2978 17.266 5.2978 26.187 0 16.819-6.3094 33.621-18.956 46.426l-109.26 110.66v37.676c0.66263 21.58 17.91 39.049 39.169 39.049h178.98c21.259 0 37.785-17.469 37.785-38.269v-182.73c0.722-21.531-15.804-39-37.785-39zm-89.849 149.5c-10.629 0-18.531-8.7344-18.531-18.769s8.6239-18.769 18.531-18.769c9.9074 0 18.531 8.7344 18.531 18.769s-7.22 18.769-18.531 18.769z"/></svg>
